<svg width="512" height="512" viewBox="0 0 512 512" fill="none" xmlns="http://www.w3.org/2000/svg">
<rect width="512" height="512" fill="#0C0E2A" fill-opacity="0.3"/>
<path d="M115.57 328V186.594H152.68V242.258H204.828V186.594H242.133V328H204.828V272.336H152.68V328H115.57ZM315.57 276.047H344.672L352.289 285.422C356.488 278.684 358.734 269.211 358.734 257.297C358.734 231.32 347.992 217.062 328.656 217.062C309.125 217.062 298.383 231.32 298.383 257.297C298.383 283.273 309.125 297.531 328.656 297.531L331.781 297.336L315.57 276.047ZM397.016 257.297C397.016 281.809 388.812 300.461 375.727 312.766L397.016 338.742H363.812L353.07 326.047C345.453 328.684 337.25 329.953 328.656 329.953C289.984 329.953 260.102 304.172 260.102 257.297C260.102 210.227 289.984 184.641 328.656 184.641C366.938 184.641 397.016 210.227 397.016 257.297Z" fill="#FF3E3E"/>
</svg>
